<svg width="91" height="55" viewBox="0 0 91 55" fill="none" xmlns="http://www.w3.org/2000/svg">
<g id="Link &#226;&#134;&#146; SVG" clip-path="url(#clip0_1_936)">
<path id="Vector" d="M0.557068 0.389282V54.3893H90.5571V0.389282H0.557068Z" fill="#0058A3"/>
<path id="Vector_2" d="M2.30081 27.8956C2.30081 40.9736 20.4133 51.8581 45.5008 51.8581C70.5883 51.8581 88.7008 40.9736 88.7008 27.8956C88.7008 14.8174 70.6446 3.93304 45.5571 3.93304C20.4696 3.93304 2.30081 14.8174 2.30081 27.8956Z" fill="#FFDB00"/>
<path id="Vector_3" d="M68.7321 37.2612H62.0383C62.3196 36.755 62.5446 36.1643 62.6571 35.5737L66.6508 19.2048V19.1205C66.8196 18.6143 66.8758 18.0237 66.8758 17.433H78.1821C78.1258 17.9393 78.1821 18.3611 78.3508 18.783C78.3508 18.8673 78.4071 18.9518 78.4071 19.1205C78.7446 20.3018 82.3446 34.2236 82.6258 35.4893C82.7383 36.0798 82.9633 36.6705 83.2446 37.1768H74.8071C74.8071 36.5861 74.7508 35.9955 74.5258 35.4893C74.5258 35.4893 74.4133 34.983 74.1883 34.3923L74.1321 34.1393H69.2383L69.1821 34.4768C69.1821 34.4768 69.0133 35.0675 68.9008 35.5737L68.8446 35.7425C68.7883 36.1643 68.7321 36.755 68.7321 37.2612ZM71.6571 24.0987C71.6008 24.5205 71.5446 24.9425 71.4321 25.3643C71.4321 25.4487 71.2633 26.0393 71.0946 26.883C70.8696 27.7268 70.6446 28.8237 70.3633 30.005H73.1758L71.9946 25.4487C71.8258 24.9425 71.7133 24.5205 71.6571 24.0987ZM30.9883 37.2612H22.8883C23.0571 36.755 23.1133 36.1643 23.0571 35.5737V19.2048C23.1133 18.6143 23.0008 18.0236 22.8883 17.5173H30.9883C30.8196 18.0236 30.7633 18.6143 30.8196 19.2048V26.3768C30.8196 26.3768 33.4071 21.3986 34.0258 20.2175C34.2508 19.7955 35.0383 18.1923 35.0383 17.5173H43.4758C42.8008 18.2768 42.2383 19.1205 41.7321 20.0486C41.2821 20.8923 38.6383 25.6173 38.6383 25.6173C38.6383 25.6173 42.5196 34.308 43.0258 35.5737C43.3071 36.1643 43.6446 36.755 43.9821 37.2612H34.1946C34.0821 36.333 33.8008 35.4048 33.4071 34.6455C33.0133 33.8018 30.9883 29.2455 30.7633 28.7393V35.658C30.7633 36.0798 30.8196 36.6705 30.9883 37.2612ZM61.0258 37.2612H45.3321C45.5008 36.755 45.5571 36.1643 45.5008 35.5737V19.2048C45.5571 18.6143 45.4446 18.0236 45.3321 17.5173H60.9696V23.0018C60.6321 22.7486 60.2383 22.6643 59.8446 22.7486H53.2633V25.3643H59.6196V29.583H53.2633V32.1987H59.8446C60.2383 32.283 60.6321 32.1143 60.9696 31.9455L61.0258 37.2612ZM19.0071 37.2612H10.2321C10.4008 36.755 10.4571 36.1643 10.4008 35.5737V19.2048C10.4571 18.6143 10.3446 18.0236 10.2321 17.5173H19.0633C18.8946 18.0236 18.8383 18.6143 18.8946 19.2048V35.5737C18.7821 36.08 18.8946 36.6705 19.0071 37.2612ZM81.7258 21.7361C81.2196 21.7361 80.7696 21.3986 80.4321 20.8923C80.0946 20.3861 79.9258 19.7112 79.9821 19.0362C79.9821 18.9518 79.9821 18.9518 79.9821 18.8673C79.9821 17.5173 80.7696 16.4205 81.6696 16.4205H81.7258H81.7821C82.7383 16.4205 83.4696 17.6018 83.4696 19.0362V19.2048C83.4696 19.8798 83.2446 20.5548 82.9633 20.9768C82.6258 21.3986 82.1758 21.7361 81.7258 21.7361ZM81.6133 16.9268C81.2758 16.9268 80.9383 17.1798 80.6571 17.6018C80.4321 18.0236 80.2633 18.53 80.3196 19.0362V19.2048C80.3196 20.3018 80.9383 21.23 81.7258 21.23H81.7821C82.1758 21.23 82.5133 20.9768 82.7946 20.5548C83.0758 20.133 83.1883 19.6268 83.1883 19.0362V18.9518C83.1883 17.855 82.5696 16.9268 81.7821 16.9268H81.6133ZM81.3883 20.5548H81.0508V17.433H81.8383C82.2321 17.433 82.5133 17.8548 82.5133 18.4455C82.5133 18.8673 82.3446 19.205 82.1196 19.3736L82.5696 20.5548H82.2321L81.8383 19.458H81.3883V20.5548ZM81.3883 17.9393V19.0362H81.8383C82.0071 19.0362 82.1758 18.783 82.1758 18.53C82.1758 18.1923 82.0071 17.9393 81.8383 17.9393H81.3883Z" fill="#0058A3"/>
</g>
<defs>
<clipPath id="clip0_1_936">
<rect width="90" height="54" fill="white" transform="translate(0.557068 0.389282)"/>
</clipPath>
</defs>
</svg>
